<svg xmlns="http://www.w3.org/2000/svg" viewBox="0 0 720 260" width="720" height="260" role="img" aria-label="Acessos ao repositório do perfil">
<style>
:root{--bg:#F8FAFC;--fg:#0F172A;--mu:#64748B;--gr:#E2E8F0;--ln:#342E83;--un:#0E9F9A}
@media (prefers-color-scheme:dark){:root{--bg:#0d1117;--fg:#e6edf3;--mu:#8b949e;--gr:#30363d;--ln:#8B85E8;--un:#2DD4BF}}
text{font-family:-apple-system,"Segoe UI",Helvetica,Arial,sans-serif}
.bg{fill:var(--bg)}.t{fill:var(--fg);font-size:18px;font-weight:600}
.s{fill:var(--mu);font-size:12px}.a{fill:var(--mu);font-size:11px}
.g{stroke:var(--gr);stroke-width:1}
.l{fill:none;stroke:var(--ln);stroke-width:2.5;stroke-linejoin:round;stroke-linecap:round}
.u{fill:none;stroke:var(--un);stroke-width:1.8;stroke-dasharray:5 4;stroke-linecap:round}
.f{fill:var(--ln);opacity:.12}.d{fill:var(--ln)}
</style>
<rect class="bg" width="720" height="260" rx="12"/>
<text class="t" x="44" y="30">Acessos ao repositório do perfil</text>
<text class="s" x="44" y="49">Últimos 14 dias · total: 5 · hoje: 5 · pico: 5 (23/09)</text>
<line class="l" x1="526" y1="26" x2="544" y2="26"/><text class="s" x="550" y="30">acessos</text><line class="u" x1="610" y1="26" x2="628" y2="26"/><text class="s" x="634" y="30">únicos</text>
<line class="g" x1="44" y1="220.0" x2="696" y2="220.0"/><text class="a" x="36" y="224.0" text-anchor="end">0</text><line class="g" x1="44" y1="188.8" x2="696" y2="188.8"/><text class="a" x="36" y="192.8" text-anchor="end">1</text><line class="g" x1="44" y1="157.6" x2="696" y2="157.6"/><text class="a" x="36" y="161.6" text-anchor="end">2</text><line class="g" x1="44" y1="126.4" x2="696" y2="126.4"/><text class="a" x="36" y="130.4" text-anchor="end">3</text><line class="g" x1="44" y1="95.2" x2="696" y2="95.2"/><text class="a" x="36" y="99.2" text-anchor="end">4</text><line class="g" x1="44" y1="64.0" x2="696" y2="64.0"/><text class="a" x="36" y="68.0" text-anchor="end">5</text><text class="a" x="44.0" y="240" text-anchor="middle">10/09</text><text class="a" x="194.5" y="240" text-anchor="middle">13/09</text><text class="a" x="344.9" y="240" text-anchor="middle">16/09</text><text class="a" x="495.4" y="240" text-anchor="middle">19/09</text><text class="a" x="645.8" y="240" text-anchor="middle">22/09</text><text class="a" x="696.0" y="240" text-anchor="end">23/09</text>
<path class="f" d="M44.0,220.0 L94.2,220.0 L144.3,220.0 L194.5,220.0 L244.6,220.0 L294.8,220.0 L344.9,220.0 L395.1,220.0 L445.2,220.0 L495.4,220.0 L545.5,220.0 L595.7,220.0 L645.8,220.0 L696.0,64.0 L696.0,220.0 L44.0,220.0 Z"/>
<path class="u" d="M44.0,220.0 L94.2,220.0 L144.3,220.0 L194.5,220.0 L244.6,220.0 L294.8,220.0 L344.9,220.0 L395.1,220.0 L445.2,220.0 L495.4,220.0 L545.5,220.0 L595.7,220.0 L645.8,220.0 L696.0,188.8"/>
<path class="l" d="M44.0,220.0 L94.2,220.0 L144.3,220.0 L194.5,220.0 L244.6,220.0 L294.8,220.0 L344.9,220.0 L395.1,220.0 L445.2,220.0 L495.4,220.0 L545.5,220.0 L595.7,220.0 L645.8,220.0 L696.0,64.0"/>
<circle class="d" cx="44.0" cy="220.0" r="2.5"><title>10/09: 0 acesso(s), 0 único(s)</title></circle><circle class="d" cx="94.2" cy="220.0" r="2.5"><title>11/09: 0 acesso(s), 0 único(s)</title></circle><circle class="d" cx="144.3" cy="220.0" r="2.5"><title>12/09: 0 acesso(s), 0 único(s)</title></circle><circle class="d" cx="194.5" cy="220.0" r="2.5"><title>13/09: 0 acesso(s), 0 único(s)</title></circle><circle class="d" cx="244.6" cy="220.0" r="2.5"><title>14/09: 0 acesso(s), 0 único(s)</title></circle><circle class="d" cx="294.8" cy="220.0" r="2.5"><title>15/09: 0 acesso(s), 0 único(s)</title></circle><circle class="d" cx="344.9" cy="220.0" r="2.5"><title>16/09: 0 acesso(s), 0 único(s)</title></circle><circle class="d" cx="395.1" cy="220.0" r="2.5"><title>17/09: 0 acesso(s), 0 único(s)</title></circle><circle class="d" cx="445.2" cy="220.0" r="2.5"><title>18/09: 0 acesso(s), 0 único(s)</title></circle><circle class="d" cx="495.4" cy="220.0" r="2.5"><title>19/09: 0 acesso(s), 0 único(s)</title></circle><circle class="d" cx="545.5" cy="220.0" r="2.5"><title>20/09: 0 acesso(s), 0 único(s)</title></circle><circle class="d" cx="595.7" cy="220.0" r="2.5"><title>21/09: 0 acesso(s), 0 único(s)</title></circle><circle class="d" cx="645.8" cy="220.0" r="2.5"><title>22/09: 0 acesso(s), 0 único(s)</title></circle><circle class="d" cx="696.0" cy="64.0" r="4.5"><title>23/09: 5 acesso(s), 1 único(s)</title></circle>
</svg>
